<?xml version="1.0" encoding="UTF-8"?>
<svg width="30" height="30" version="1.1" viewBox="0 0 700 700" xmlns="http://www.w3.org/2000/svg" xmlns:xlink="http://www.w3.org/1999/xlink">
 
 <g>
  <path fill="#343a40" d="m127.85 77.555c-15.969 7.8867-24.977 24.977-22.422 42.52 16.27 112.07 60.035 204.41 130.06 274.44 70.027 70.027 162.36 113.79 274.44 130.06 1.9805 0.28906 3.957 0.42578 5.9141 0.42578 15.371 0 29.609-8.6914 36.605-22.848l38.871-78.621c8.1445-16.465 2.5195-36.195-13.082-45.895l-86.297-53.66c-14.098-8.7852-32.137-6.6914-43.859 5.043l-29.738 29.738c-2.6836 2.6758-6.2109 4.0352-9.6211 3.8438-13.09-0.87891-27.035-4.3594-41.434-10.332-40.203-16.707-72.844-49.348-89.543-89.551-5.9805-14.398-9.4609-28.344-10.34-41.434-0.23828-3.4336 1.1719-6.9375 3.8438-9.6211l29.738-29.738c11.73-11.73 13.809-29.77 5.043-43.859l-53.66-86.297c-9.6914-15.594-29.422-21.219-45.895-13.082zm94.379-16.312c3.1016 0 6.1016 1.5742 7.8516 4.3828l53.66 86.297c2.2812 3.6758 1.7422 8.3828-1.3164 11.441l-29.738 29.738c-8.0312 8.0312-12.219 18.945-11.484 29.941 1.0781 15.961 5.2109 32.691 12.297 49.738 19.336 46.57 57.148 84.383 103.72 103.73 17.047 7.0742 33.777 11.211 49.738 12.289 11.023 0.72656 21.91-3.4531 29.941-11.484l29.738-29.738c3.0664-3.0508 7.7656-3.582 11.441-1.3164l86.297 53.66c4.0664 2.5273 5.5352 7.6836 3.4102 11.973l-38.871 78.629v0.007813c-2.8359 5.7422-8.9961 8.9727-15.211 8.0664-106.36-15.441-193.71-56.703-259.66-122.64-65.934-65.938-107.2-153.29-122.64-259.65-0.91406-6.2617 2.332-12.371 8.0742-15.211l78.629-38.871c1.3242-0.65625 2.7344-0.97266 4.1172-0.97266z"/>
  
 </g>
</svg>
