<?xml version="1.0" encoding="UTF-8"?>
<svg width="40" height="40" version="1.1" viewBox="0 0 700 700" xmlns="http://www.w3.org/2000/svg" xmlns:xlink="http://www.w3.org/1999/xlink">
 <g>
  <path fill="#ffc107" d="m339.75 365.09c4.9102-0.35547 9.5195-2.4883 12.973-5.9961 3.4531-3.5078 5.5117-8.1523 5.7891-13.07 0.14062-2.5977 0.21875-5.2461 0.21875-7.8711s-0.078125-5.2578-0.21875-7.8633v0.003906c-0.27734-4.9141-2.3359-9.5547-5.7891-13.062-3.4531-3.5039-8.0664-5.6328-12.973-5.9844l-25.211-1.7695c-2.0195-6.8555-4.7656-13.48-8.1953-19.754l16.574-19.086c3.2227-3.7188 4.9766-8.4844 4.9414-13.402-0.039063-4.9219-1.8633-9.6602-5.1406-13.328-3.5039-3.9141-7.2227-7.6328-11.133-11.137-3.6719-3.2773-8.4102-5.1016-13.332-5.1406-4.918-0.035156-9.6836 1.7188-13.402 4.9414l-19.086 16.562c-6.2773-3.4258-12.898-6.1719-19.754-8.1914l-1.7695-25.211v-0.003906c-0.35547-4.9062-2.4844-9.5156-5.9922-12.969-3.5039-3.4492-8.1484-5.5078-13.059-5.7891-5.2422-0.28516-10.492-0.28516-15.734 0-4.918 0.27734-9.5664 2.3359-13.078 5.793-3.5078 3.457-5.6367 8.0742-5.9844 12.988l-1.7695 25.211v0.003907c-6.8555 2.0156-13.48 4.7656-19.754 8.1914l-19.086-16.57c-3.7148-3.2227-8.4805-4.9844-13.398-4.9531-4.9219 0.035156-9.6602 1.8594-13.336 5.1289-3.9102 3.5039-7.6289 7.2227-11.133 11.137-3.2773 3.6719-5.1016 8.4102-5.1406 13.328-0.035156 4.9219 1.7188 9.6836 4.9414 13.406l16.57 19.082v-0.003907c-3.4258 6.2773-6.168 12.906-8.1836 19.766l-25.207 1.7695c-4.9062 0.35156-9.5195 2.4805-12.973 5.9844-3.4531 3.5039-5.5117 8.1484-5.7891 13.062-0.14844 2.5977-0.21875 5.2461-0.21875 7.8711s0.070312 5.2695 0.21875 7.8711v-0.003906c0.27734 4.9102 2.332 9.5508 5.7812 13.059 3.4453 3.5078 8.0547 5.6367 12.957 6l25.211 1.7695v-0.003907c2.0195 6.8594 4.7656 13.48 8.1875 19.754l-16.566 19.094c-3.2227 3.7227-4.9766 8.4883-4.9375 13.406 0.035157 4.9219 1.8633 9.6602 5.1367 13.332 3.5078 3.9141 7.2305 7.6289 11.145 11.129 3.6719 3.2773 8.4102 5.1016 13.332 5.1406 4.918 0.035157 9.6836-1.7188 13.402-4.9375l19.086-16.57c6.2734 3.4258 12.898 6.1719 19.754 8.1914l1.7695 25.211c0.35547 4.9102 2.4844 9.5195 5.9883 12.973 3.5078 3.4531 8.1484 5.5117 13.062 5.793 2.6055 0.14062 5.2539 0.21875 7.8633 0.21875 2.6133 0 5.2578-0.078126 7.8711-0.21875 4.9141-0.28125 9.5547-2.3398 13.062-5.793 3.5039-3.4531 5.6328-8.0625 5.9883-12.973l1.7695-25.219v0.003907c6.8555-2.0195 13.477-4.7656 19.754-8.1875l19.086 16.57c3.7188 3.2188 8.4844 4.9766 13.402 4.9375 4.9219-0.035156 9.6602-1.8633 13.328-5.1406 3.9141-3.5 7.6328-7.2148 11.137-11.129 3.2734-3.6719 5.1016-8.4102 5.1367-13.332 0.039062-4.918-1.7188-9.6836-4.9375-13.406l-16.527-19.082c3.4258-6.2734 6.1719-12.898 8.1875-19.758zm-53.051 29.121 21.258 24.488-0.003906-0.003906c0.074219 0.070313 0.11328 0.16406 0.11328 0.26562 0 0.10156-0.039062 0.19531-0.11328 0.26562-3.0156 3.3672-6.2148 6.5703-9.5859 9.5859-0.070313 0.070312-0.16406 0.10938-0.26563 0.10938-0.097656 0-0.19531-0.039063-0.26562-0.10938l-24.469-21.266c-3.3398-2.8867-8.1875-3.2148-11.887-0.80469-8.2266 5.3242-17.355 9.1055-26.934 11.164-4.3125 0.92578-7.4922 4.5898-7.8008 8.9883l-2.3047 32.309c0.003906 0.10156-0.035156 0.19531-0.10938 0.26562-0.070312 0.070312-0.16797 0.10938-0.26562 0.10547-4.5156 0.25391-9.043 0.25391-13.559 0-0.10156 0.003907-0.19922-0.035156-0.26953-0.10547-0.070312-0.070313-0.10938-0.16406-0.10938-0.26562l-2.2812-32.344c-0.30859-4.3945-3.4883-8.0586-7.7969-8.9844-9.5664-2.0547-18.676-5.8242-26.895-11.133-3.7031-2.3945-8.5391-2.0508-11.871 0.83594l-24.496 21.234c-0.070312 0.074218-0.16797 0.11328-0.26562 0.11328-0.10156 0-0.19922-0.039063-0.26563-0.11328-3.3711-3.0156-6.5703-6.2109-9.5859-9.582-0.074219-0.066406-0.11328-0.16406-0.11328-0.26562 0-0.097657 0.039062-0.19531 0.11328-0.26563l21.258-24.488v0.003907c2.8906-3.3281 3.2344-8.168 0.83984-11.871-5.3242-8.2266-9.1055-17.355-11.164-26.934-0.92578-4.3125-4.5898-7.4922-8.9883-7.8008l-32.352-2.293c-0.097656 0.003906-0.19531-0.035156-0.26562-0.10547-0.070312-0.070312-0.10938-0.17188-0.10547-0.26953-0.125-2.2344-0.1875-4.5156-0.1875-6.7734 0-2.2578 0.066407-4.5312 0.1875-6.7734-0.003906-0.10156 0.035157-0.19531 0.10547-0.26953 0.070312-0.070313 0.16797-0.10938 0.26562-0.10938l32.344-2.2812h0.003906c4.3945-0.30859 8.0586-3.4883 8.9883-7.7969 2.0586-9.582 5.8398-18.711 11.164-26.941 2.3945-3.6992 2.0508-8.5391-0.83594-11.871l-21.258-24.484c-0.074219-0.070313-0.11328-0.16797-0.11328-0.26562 0-0.10156 0.039062-0.19531 0.11328-0.26562 3.0156-3.3672 6.2148-6.5664 9.5859-9.5781 0.066407-0.074219 0.16016-0.11328 0.26172-0.11328 0.097657 0 0.19531 0.039063 0.26172 0.11328l24.488 21.273c3.3281 2.8906 8.168 3.2344 11.871 0.84375 8.2266-5.3281 17.355-9.1094 26.938-11.168 4.3164-0.92969 7.4961-4.6055 7.8008-9.0117l2.2812-32.344c-0.003906-0.10156 0.035156-0.19531 0.10938-0.26562 0.070313-0.070313 0.16797-0.10938 0.26562-0.10547 4.5156-0.25 9.043-0.25 13.559 0 0.10156-0.003906 0.19922 0.035156 0.26953 0.10547 0.070313 0.070312 0.10938 0.16406 0.10938 0.26562l2.2812 32.344c0.3125 4.3984 3.4883 8.0586 7.7969 8.9883 9.582 2.0703 18.711 5.8633 26.934 11.203 3.7109 2.3945 8.5547 2.043 11.883-0.85547l24.488-21.262c0.070312-0.074218 0.16406-0.11719 0.26562-0.11719 0.10156 0 0.19531 0.042969 0.26562 0.11719 3.3672 3.0117 6.5664 6.2109 9.582 9.5781 0.074219 0.070312 0.11328 0.16406 0.11328 0.26562 0 0.097657-0.039062 0.19531-0.11328 0.26563l-21.273 24.473c-2.8906 3.332-3.2344 8.168-0.84375 11.871 5.3281 8.2305 9.1133 17.359 11.168 26.941 0.92578 4.3086 4.5898 7.4883 8.9883 7.7969l32.352 2.2812c0.097656 0 0.19531 0.039062 0.26562 0.10938 0.070312 0.074218 0.10938 0.16797 0.10547 0.26953 0.125 2.2383 0.18359 4.5195 0.18359 6.7734 0 2.25-0.058593 4.5391-0.18359 6.7734 0.003906 0.097656-0.035157 0.19922-0.10547 0.26953-0.070312 0.070313-0.16797 0.10938-0.26562 0.10547l-32.344 2.2891h-0.003906c-4.3945 0.30469-8.0625 3.4844-8.9883 7.793-2.0586 9.582-5.8438 18.711-11.172 26.938-2.3906 3.7031-2.0469 8.543 0.84375 11.871zm-69.391-112.73c-15.035 0.003906-29.453 5.9766-40.082 16.609-10.629 10.633-16.602 25.051-16.602 40.086 0 15.035 5.9766 29.453 16.605 40.082 10.633 10.633 25.051 16.605 40.086 16.602 15.035 0 29.453-5.9727 40.086-16.602 10.629-10.633 16.602-25.051 16.602-40.086-0.015625-15.031-5.9961-29.441-16.625-40.07s-25.039-16.605-40.07-16.621zm0 93.566c-9.7812 0-19.16-3.8828-26.074-10.801-6.918-6.9141-10.801-16.293-10.801-26.074s3.8828-19.16 10.801-26.078c6.9141-6.9141 16.293-10.801 26.074-10.801s19.16 3.8867 26.078 10.801c6.9141 6.918 10.801 16.297 10.801 26.078-0.011719 9.7773-3.8984 19.148-10.812 26.062-6.9141 6.9141-16.289 10.805-26.066 10.812zm406.58 11.125c-0.27734-4.9141-2.3359-9.5547-5.7891-13.062-3.4531-3.5039-8.0664-5.6328-12.973-5.9883l-25.211-1.7695c-2.0195-6.8555-4.7656-13.48-8.1875-19.754l16.57-19.086h-0.003906c3.2227-3.7227 4.9766-8.4883 4.9375-13.406-0.035157-4.9219-1.8633-9.6602-5.1367-13.332-3.5078-3.9141-7.2266-7.6328-11.145-11.137-3.6719-3.2773-8.4102-5.1016-13.332-5.1406-4.918-0.035156-9.6836 1.7188-13.402 4.9414l-19.086 16.57c-6.2734-3.4258-12.898-6.1758-19.754-8.1953l-1.7695-25.211c-0.35547-4.9062-2.4844-9.5195-5.9922-12.969-3.5039-3.4531-8.1484-5.5117-13.059-5.793-5.2422-0.28906-10.492-0.28906-15.734 0-4.9141 0.27734-9.5547 2.3359-13.062 5.7891-3.5039 3.4531-5.6328 8.0664-5.9883 12.973l-1.7695 25.211c-6.8594 2.0156-13.488 4.7617-19.766 8.1875l-19.086-16.562c-3.7188-3.2227-8.4844-4.9805-13.402-4.9414-4.9219 0.035157-9.6602 1.8633-13.332 5.1406-3.9102 3.5039-7.6289 7.2188-11.133 11.129-3.2734 3.6758-5.1016 8.4141-5.1367 13.332-0.039062 4.9219 1.7148 9.6875 4.9375 13.406l16.57 19.082c-3.4258 6.2773-6.1758 12.902-8.1953 19.762l-25.207 1.7695v-0.003906c-4.9062 0.35547-9.5195 2.4844-12.973 5.9922-3.4531 3.5039-5.5117 8.1484-5.7891 13.062-0.14062 2.5977-0.21875 5.2461-0.21875 7.8711s0.078125 5.2695 0.21875 7.8633v-0.003906c0.27734 4.9141 2.3359 9.5586 5.7891 13.062 3.4531 3.5078 8.0664 5.6367 12.973 5.9883l25.211 1.7695c2.0195 6.8594 4.7656 13.48 8.1953 19.754l-16.539 19.094c-3.2227 3.7188-4.9805 8.4805-4.9453 13.402 0.035156 4.918 1.8633 9.6602 5.1367 13.328 3.5039 3.9141 7.2227 7.6328 11.137 11.137 3.6719 3.2734 8.4102 5.1016 13.328 5.1406 4.9219 0.035156 9.6836-1.7188 13.406-4.9414l19.086-16.57c6.2734 3.4258 12.895 6.1719 19.754 8.1953l1.7695 25.211h-0.003906c0.35156 4.9102 2.4766 9.5234 5.9766 12.98 3.5039 3.457 8.1445 5.5195 13.059 5.8008 2.6133 0.14844 5.2578 0.21875 7.8711 0.21875 2.6133 0 5.2578-0.070313 7.8633-0.21875 4.9102-0.27734 9.5547-2.3359 13.062-5.7891 3.5039-3.4492 5.6328-8.0625 5.9883-12.969l1.7695-25.219c6.8555-2.0156 13.48-4.7617 19.754-8.1875l19.086 16.57c3.7227 3.2188 8.4883 4.9727 13.406 4.9336 4.918-0.039062 9.6562-1.8672 13.328-5.1445 3.9102-3.5039 7.6289-7.2227 11.133-11.137 3.2773-3.668 5.1016-8.4062 5.1406-13.328 0.035156-4.918-1.7188-9.6836-4.9414-13.402l-16.57-19.086c3.4258-6.2734 6.1719-12.898 8.1836-19.754l25.211-1.7695c4.9102-0.35156 9.5195-2.4805 12.973-5.9844 3.4531-3.5039 5.5117-8.1484 5.793-13.062 0.14844-2.5977 0.21875-5.2539 0.21875-7.8711-0.003906-2.6133-0.054688-5.2773-0.20312-7.8789zm-19.781 14.641v0.003906c0.003906 0.097656-0.035157 0.19531-0.10547 0.26562-0.070312 0.070312-0.16797 0.11328-0.26562 0.10938l-32.344 2.2812h-0.003906c-4.3945 0.3125-8.0586 3.4883-8.9883 7.8008-2.0586 9.582-5.8438 18.711-11.168 26.938-2.3945 3.7031-2.0508 8.543 0.83984 11.871l21.258 24.488c0.074219 0.066406 0.11328 0.16406 0.11328 0.26562 0 0.097656-0.039062 0.19531-0.11328 0.26562-3.0156 3.3633-6.2188 6.5625-9.5859 9.5781-0.066407 0.070313-0.16016 0.11328-0.26172 0.11328-0.097657 0-0.19531-0.042968-0.26172-0.11328l-24.492-21.262c-3.3281-2.8906-8.1641-3.2344-11.867-0.84375-8.2266 5.3242-17.355 9.1094-26.938 11.164-4.3086 0.92969-7.4883 4.5938-7.8008 8.9883l-2.2812 32.352c0.003906 0.10156-0.035156 0.19531-0.10938 0.26563-0.070313 0.070312-0.16797 0.10937-0.26562 0.10547-4.5156 0.25-9.043 0.25-13.559 0-0.10156 0.003906-0.19922-0.035156-0.26953-0.10547-0.070313-0.070313-0.10938-0.16406-0.10938-0.26563l-2.2812-32.344c-0.3125-4.3984-3.4883-8.0586-7.7969-8.9883-9.582-2.0625-18.707-5.8438-26.934-11.168-3.7031-2.3906-8.543-2.0469-11.871 0.83984l-24.488 21.262c-0.070312 0.070313-0.16406 0.10938-0.26562 0.10938-0.097656 0-0.19531-0.039062-0.26562-0.10938-3.3672-3.0078-6.5625-6.1953-9.5781-9.5547-0.074219-0.070313-0.11328-0.16797-0.11328-0.26563 0-0.10156 0.039062-0.19922 0.11328-0.26562l21.258-24.488c2.8906-3.3281 3.2344-8.168 0.84375-11.871-5.3281-8.2266-9.1133-17.355-11.168-26.938-0.92578-4.3125-4.5898-7.4883-8.9883-7.8008l-32.352-2.2812c-0.097656 0.003907-0.19531-0.039062-0.26562-0.10938-0.070312-0.070312-0.10938-0.16797-0.10547-0.26562-0.125-2.2383-0.18359-4.5156-0.18359-6.7734 0-2.2578 0.058593-4.5391 0.18359-6.7773v-0.003906c-0.003906-0.097656 0.035157-0.19531 0.10547-0.26562 0.070312-0.074219 0.16797-0.11328 0.26562-0.10938l32.344-2.2812h0.003906c4.3984-0.30859 8.0625-3.4883 8.9883-7.8008 2.0586-9.582 5.8398-18.711 11.164-26.938 2.3906-3.7031 2.0508-8.5391-0.83594-11.867l-21.262-24.488c-0.074219-0.066406-0.11328-0.16406-0.11328-0.26172 0-0.10156 0.039062-0.19531 0.11328-0.26562 3.0156-3.3711 6.2148-6.5703 9.582-9.5859 0.070312-0.074218 0.16797-0.11328 0.26562-0.11328 0.10156 0 0.19531 0.039063 0.26562 0.11328l24.477 21.234c3.3281 2.8906 8.168 3.2344 11.871 0.83984 8.2266-5.3242 17.355-9.1094 26.938-11.168 4.3086-0.92187 7.4922-4.5781 7.8125-8.9727l2.2812-32.34c-0.003906-0.097656 0.035156-0.19531 0.10938-0.26562 0.070313-0.070313 0.16797-0.10938 0.26562-0.10547 4.5156-0.24609 9.043-0.24609 13.559 0 0.10156-0.003907 0.19922 0.035156 0.26953 0.10547 0.070313 0.070312 0.10938 0.16797 0.10938 0.26562l2.2734 32.34c0.3125 4.3945 3.4922 8.0547 7.8008 8.9844 9.5742 2.0547 18.695 5.8359 26.922 11.156 3.7031 2.3945 8.5391 2.0547 11.871-0.83594l24.488-21.262h-0.003906c0.070312-0.074219 0.16797-0.11719 0.26953-0.11719s0.19922 0.042968 0.26953 0.11719c3.3672 3.0117 6.5625 6.2109 9.5781 9.5781 0.074219 0.070312 0.11328 0.16406 0.11328 0.26562s-0.039063 0.19531-0.11328 0.26562l-21.246 24.492c-2.8906 3.3281-3.2344 8.168-0.83984 11.871 5.3242 8.2266 9.1055 17.352 11.164 26.934 0.92578 4.3086 4.5898 7.4883 8.9883 7.8008l32.352 2.2812c0.10156-0.003906 0.19531 0.035156 0.26562 0.10938s0.10938 0.17188 0.10547 0.27344c0.125 2.2344 0.1875 4.5156 0.1875 6.7734 0 2.2578-0.066407 4.5312-0.1875 6.7734zm-121.41-63.227c-14.973 0-29.332 5.9453-39.922 16.531-10.59 10.59-16.539 24.949-16.539 39.922s5.9453 29.332 16.531 39.918c10.59 10.59 24.949 16.539 39.922 16.539s29.332-5.9492 39.918-16.535c10.59-10.586 16.535-24.945 16.535-39.918-0.015625-14.969-5.9688-29.316-16.551-39.898-10.582-10.586-24.93-16.539-39.895-16.559zm0 93.09c-9.7188 0-19.035-3.8594-25.906-10.73-6.8711-6.8672-10.73-16.188-10.73-25.902 0-9.7188 3.8594-19.035 10.73-25.906s16.188-10.73 25.906-10.73c9.7148 0 19.035 3.8594 25.906 10.73 6.8672 6.8711 10.73 16.188 10.73 25.906-0.011719 9.7109-3.875 19.023-10.746 25.891-6.8672 6.8711-16.18 10.734-25.891 10.742zm-165.08-260.64 20.289 1.4336c1.5977 5.207 3.6875 10.25 6.2422 15.059l-13.332 15.355v0.003906c-2.9688 3.4258-4.5859 7.8203-4.5508 12.355 0.035157 4.5312 1.7188 8.8984 4.7383 12.281 3 3.3555 6.1836 6.5391 9.5352 9.5391 3.3828 3.0195 7.75 4.7031 12.285 4.7344 4.5312 0.035157 8.9219-1.582 12.352-4.5508l15.328-13.328h-0.003906c4.8125 2.5547 9.8594 4.6445 15.066 6.2422l1.4258 20.285h0.003906c0.32422 4.5234 2.2891 8.7734 5.5195 11.957 3.2305 3.1797 7.5117 5.0781 12.039 5.3359 2.2383 0.11719 4.5078 0.18359 6.7383 0.18359 2.2266 0 4.4961-0.066406 6.7422-0.18359 4.5273-0.25781 8.8086-2.1562 12.039-5.3398 3.2305-3.1836 5.1914-7.4336 5.5156-11.953l1.4336-20.285c5.207-1.6055 10.246-3.6953 15.062-6.2422l15.355 13.328c3.4258 2.9688 7.8203 4.5859 12.352 4.5508 4.5352-0.03125 8.9023-1.7148 12.289-4.7344 3.3477-3.0039 6.5312-6.1875 9.5352-9.5391 3.0195-3.3828 4.6992-7.75 4.7344-12.285 0.035156-4.5312-1.582-8.9258-4.5508-12.352l-13.328-15.355v-0.003907c2.5508-4.8125 4.6406-9.8555 6.2422-15.059l20.285-1.4336c4.5234-0.32422 8.7734-2.2852 11.953-5.5156 3.1836-3.2305 5.0781-7.5117 5.3359-12.039 0.125-2.2344 0.1875-4.5039 0.1875-6.7422s-0.066406-4.4961-0.1875-6.7383c-0.25391-4.5234-2.1445-8.8008-5.3203-12.035-3.1758-3.2305-7.4219-5.1953-11.941-5.5273l-20.285-1.4336 0.003906 0.003906c-1.6016-5.2109-3.6914-10.258-6.2422-15.074l13.328-15.324c2.9648-3.4297 4.582-7.8203 4.5508-12.355-0.035156-4.5352-1.7188-8.9023-4.7344-12.285-3.0078-3.3594-6.1953-6.5469-9.5547-9.5508-3.3828-3.0195-7.75-4.6992-12.285-4.7344-4.5312-0.035156-8.9219 1.582-12.352 4.5469l-15.344 13.332c-4.8125-2.5508-9.8555-4.6445-15.059-6.2461l-1.4336-20.285c-0.33203-4.5195-2.3008-8.7617-5.5312-11.938-3.2305-3.1797-7.5078-5.0703-12.031-5.3281-4.4883-0.24609-8.9844-0.24609-13.473 0-4.5273 0.25781-8.8086 2.1562-12.039 5.3359-3.2305 3.1836-5.1953 7.4297-5.5234 11.953l-1.4258 20.285c-5.207 1.6016-10.254 3.6914-15.066 6.2461l-15.328-13.332c-3.4258-2.9648-7.8164-4.582-12.352-4.5469-4.5312 0.035156-8.8984 1.7188-12.281 4.7344-3.3555 3-6.5391 6.1836-9.5391 9.5391-3.0195 3.3828-4.7031 7.75-4.7383 12.285-0.035156 4.5312 1.582 8.9258 4.5508 12.355l13.328 15.328v-0.003906c-2.5508 4.8164-4.6406 9.8594-6.2422 15.066l-20.285 1.4336c-4.5195 0.32812-8.7695 2.2891-11.953 5.5195-3.1797 3.2305-5.0781 7.5078-5.3359 12.035-0.125 2.2383-0.1875 4.5078-0.1875 6.7383 0 2.2266 0.066406 4.4961 0.1875 6.7422 0.25781 4.5234 2.1523 8.7969 5.3281 12.027 3.1758 3.2266 7.4141 5.1914 11.934 5.5273zm2.4453-28.883 26.312-1.8555v-0.003906c4.4102-0.3125 8.0781-3.5078 8.9922-7.832 1.7031-7.9297 4.832-15.48 9.2344-22.289 2.3945-3.6992 2.0508-8.5352-0.83594-11.867l-17.293-19.91c2.0703-2.2578 4.25-4.4453 6.4844-6.5156l19.926 17.301h-0.003906c3.3398 2.9062 8.1953 3.2461 11.906 0.83984 6.8086-4.4102 14.359-7.5391 22.289-9.2422 4.3008-0.9375 7.4688-4.5977 7.7773-8.9844l1.8555-26.312c3.0547-0.13672 6.1289-0.14062 9.207 0l1.8555 26.32v-0.003907c0.3125 4.3984 3.4922 8.0586 7.8008 8.9844 7.9336 1.7031 15.496 4.832 22.312 9.2383 3.7031 2.3906 8.543 2.0469 11.871-0.84375l19.926-17.301c2.2617 2.0703 4.4453 4.25 6.5156 6.5156l-17.301 19.93-0.003907-0.003906c-2.8867 3.3281-3.2305 8.1641-0.84375 11.867 4.4023 6.8047 7.5273 14.352 9.2266 22.277 0.92969 4.3086 4.5898 7.4844 8.9883 7.7969l26.324 1.8555c0.070313 1.5391 0.10156 3.082 0.10156 4.6055 0 1.5195-0.035157 3.0703-0.10156 4.6094l-26.32 1.8555 0.003907 0.003907c-4.4023 0.30469-8.0664 3.4844-8.9922 7.7969-1.7031 7.9258-4.832 15.477-9.2344 22.281-2.3945 3.7031-2.0547 8.543 0.83594 11.875l17.301 19.926c-2.0625 2.2617-4.25 4.4453-6.5156 6.4844l-19.926-17.301 0.003906-0.003907c-3.332-2.8867-8.168-3.2305-11.871-0.83594-6.8086 4.4023-14.359 7.5312-22.285 9.2383-4.3086 0.92188-7.4922 4.582-7.8047 8.9805l-1.8555 26.367c-3.0742 0.13281-6.1406 0.13281-9.207 0l-1.8672-26.312c-0.3125-4.3984-3.4922-8.0586-7.8008-8.9883-7.9258-1.7031-15.477-4.8359-22.281-9.2383-3.7031-2.3945-8.543-2.0508-11.871 0.83594l-19.941 17.301c-2.2617-2.0703-4.4453-4.25-6.4844-6.4844l17.301-19.926v0.003907c2.8906-3.3281 3.2344-8.168 0.83984-11.875-4.4062-6.8047-7.5352-14.352-9.2344-22.281-0.92578-4.3125-4.5898-7.4922-8.9922-7.7969l-26.324-1.9102c-0.070313-1.5391-0.10547-3.082-0.10547-4.6094 0-1.5273 0.035156-3.0547 0.10547-4.582zm101.27 54.207c13.16 0 25.781-5.2266 35.09-14.531 9.3047-9.3047 14.535-21.926 14.535-35.086 0.003906-13.16-5.2266-25.785-14.531-35.09-9.3047-9.3086-21.926-14.535-35.086-14.535-13.164-0.003906-25.785 5.2266-35.09 14.531-9.3086 9.3047-14.535 21.93-14.535 35.09 0.015624 13.152 5.2461 25.766 14.547 35.066 9.3047 9.3047 21.914 14.539 35.07 14.555zm0-79.426c7.9023 0 15.484 3.1406 21.074 8.7305 5.5859 5.5898 8.7266 13.168 8.7266 21.074 0 7.9023-3.1406 15.484-8.7266 21.074-5.5898 5.5898-13.172 8.7305-21.074 8.7305-7.9062 0-15.488-3.1406-21.078-8.7305-5.5859-5.5898-8.7266-13.172-8.7266-21.074 0.007812-7.9023 3.1523-15.477 8.7383-21.066 5.5859-5.5859 13.164-8.7305 21.066-8.7383z"/>
 </g>
</svg>
