<?xml version="1.0" encoding="UTF-8"?>
<svg width="40" height="40" version="1.1" viewBox="0 0 700 700" xmlns="http://www.w3.org/2000/svg" xmlns:xlink="http://www.w3.org/1999/xlink">
 <g>
  <path fill="#ffc107" d="m161.39 238.77c-7.7266-10.137-12.375-22.742-12.375-36.441 0-33.23 27.035-60.258 60.262-60.258s60.262 27.027 60.262 60.258c0 13.699-4.6445 26.305-12.375 36.441-11.02 14.445-28.355 23.828-47.887 23.828-19.527 0-36.867-9.3789-47.887-23.828zm118.17 62.395c-5.6328-11.004-8.6562-23.078-8.6562-35.621 0-7.1875 1.0469-14.117 2.8516-20.742-2.6914-1.7266-5.543-3.2266-8.6289-4.2656-12.211 17.801-32.684 29.508-55.852 29.508s-43.641-11.707-55.852-29.508c-15.5 5.2383-26.73 19.738-26.73 37.008l-6.25 78.484c-0.69141 8.6602 6.1523 16.07 14.844 16.07h108.39l1.6875-21.191c-0.03125-21.68 13.629-41.312 34.195-49.742zm211.15-38.566c19.531 0 36.871-9.3828 47.887-23.828 7.7266-10.137 12.375-22.742 12.375-36.441 0-33.23-27.035-60.258-60.262-60.258-33.227 0-60.262 27.027-60.262 60.258 0 13.699 4.6484 26.305 12.375 36.441 11.016 14.449 28.355 23.828 47.887 23.828zm82.582 14.945c0-17.27-11.23-31.77-26.73-37.008-12.211 17.801-32.684 29.508-55.852 29.508-23.168 0-43.641-11.707-55.852-29.508-3.0859 1.043-5.9375 2.543-8.6289 4.2695 1.8047 6.625 2.8516 13.555 2.8516 20.742 0 12.551-3.0234 24.625-8.6484 35.625 20.566 8.4492 34.223 28.254 34.223 50.543l1.6328 20.387h108.42c8.6875 0 15.531-7.4102 14.844-16.07zm-127.07 94.555-1.5977-19.98c-0.007812-11.84-4.5703-22.711-12.191-30.855-0.27344-0.28906-0.5-0.625-0.77734-0.90234-1.0156-1.0352-2.168-1.9336-3.2852-2.8633-0.67969-0.56641-1.2969-1.1953-2.0117-1.7188-0.94141-0.69922-1.9922-1.2578-2.9922-1.8828-0.97266-0.60547-1.9023-1.2812-2.9258-1.8164-1.332-0.69531-2.7656-1.2227-4.1797-1.7891-0.375-0.14844-0.73438-0.33594-1.1172-0.47656-0.80078 1.1758-1.4297 2.4336-2.2969 3.5742-2.5352 3.3281-5.3594 6.3203-8.3047 9.1602-14.637 14.105-33.902 22.098-54.551 22.098-20.648 0-39.91-7.9922-54.547-22.102-2.9453-2.8398-5.7695-5.8398-8.3047-9.1641-0.86719-1.1367-1.4922-2.3945-2.293-3.5625-1.4531 0.53516-2.8711 1.1328-4.25 1.8125-0.32422 0.16016-0.6875 0.26562-1.0078 0.42969-14.355 7.4727-24.207 22.355-24.207 39.664l-1.625 20.387-4.8438 60.812-0.69141 8.7109c-0.03125 0.38672 0.03125 0.76953 0.027344 1.1562-0.011719 0.80078-0.035156 1.6094 0.0625 2.3867 0.14062 1.0859 0.40625 2.1484 0.75 3.1797 0.023438 0.070312 0.027344 0.14844 0.050781 0.21484 0.34375 0.99219 0.80469 1.9375 1.3281 2.8516 0.058594 0.10547 0.09375 0.22266 0.15625 0.32422 0.53906 0.89844 1.1836 1.7383 1.8867 2.5312 0.23438 0.26172 0.48828 0.49609 0.73828 0.74609 0.66406 0.66016 1.3438 1.3047 2.1016 1.8438 0.17188 0.125 0.375 0.20312 0.55078 0.32031 0.80078 0.52734 1.6211 1.0273 2.5 1.4141 0.14453 0.0625 0.30469 0.085938 0.44922 0.14844 0.93359 0.37891 1.8867 0.71094 2.875 0.92188 1.1055 0.23047 2.25 0.35547 3.4258 0.36328 0.035156 0 0.066406 0.007813 0.10156 0.007813h169.54c1.2109 0 2.3906-0.13281 3.5273-0.37109 1.043-0.22266 2.0508-0.5625 3.0312-0.97266 0.09375-0.039063 0.19531-0.054688 0.28906-0.09375 0.94531-0.41406 1.832-0.94531 2.6914-1.5234 0.11719-0.078125 0.25-0.12891 0.35937-0.20703 0.88672-0.62891 1.7031-1.3633 2.4609-2.1641 0.15234-0.16016 0.28906-0.33203 0.4375-0.50391 0.67578-0.76953 1.3047-1.5742 1.8281-2.4453 0.15234-0.25391 0.24609-0.54297 0.38281-0.80859 0.41016-0.77344 0.81641-1.543 1.1016-2.3672 0.09375-0.26563 0.12109-0.55859 0.19922-0.83203 0.24609-0.84375 0.48828-1.6914 0.60547-2.5703 0.14844-1.1562 0.1875-2.3438 0.09375-3.5508l-0.77344-9.6953zm-96.223-37.594c22.375 0 42.242-10.754 54.863-27.301 8.8555-11.613 14.176-26.051 14.176-41.746 0-38.07-30.973-69.039-69.043-69.039-38.07 0-69.043 30.965-69.043 69.039 0 15.695 5.3242 30.137 14.176 41.746 12.629 16.547 32.496 27.301 54.871 27.301z"/>
 </g>
</svg>
