<?xml version="1.0" encoding="UTF-8"?>
<svg width="30" height="30" version="1.1" viewBox="0 0 700 700" xmlns="http://www.w3.org/2000/svg" xmlns:xlink="http://www.w3.org/1999/xlink">
 
 <g>
  <path fill="#ffc107" d="m232.73 465.47c3.6875 3.5742 9.6523 3.5078 13.262-0.14062l293.84-297.04c3.6133-3.6484 3.5469-9.5586-0.14062-13.133l-67.965-65.977c-3.6875-3.5742-9.6523-3.5078-13.262 0.14062l-293.87 297.01c-3.6133 3.6484-3.5469 9.5586 0.14062 13.133z"/>
  <path  d="m553.74 140.97c3.6875 3.5742 9.6523 3.5078 13.262-0.14062l32.387-32.742c3.6133-3.6484 3.5742-9.5859-0.074219-13.199l-67.332-66.641c-3.6484-3.6133-9.5859-3.5742-13.199 0.074218l-33.152 33.523c-3.6133 3.6484-3.5469 9.5586 0.14062 13.133z"/>
  <path fill="#ffc107" d="m150.69 413.65c-3.6875-3.5742-7.2422-5.9453-7.9141-5.2656-0.65234 0.66406-2.6602 5.1602-4.4414 9.9766l-19.93 53.996c-1.7734 4.8242-0.21484 11.684 3.4609 15.262l22.922 22.242c3.6875 3.5742 10.629 5.0039 15.418 3.1719l53.266-20.336c4.7969-1.8281 9.4453-4.0508 10.305-4.9297 0.87891-0.88672-1.418-4.5273-5.1055-8.1016z"/>
  <path d="m118.26 497.36c-3.6875-3.5742-8.1562-2.5586-9.9297 2.2578l-11.043 29.922c-1.7734 4.8242 0.67969 7.2617 5.4883 5.4219l30.184-11.527c4.8086-1.8398 5.7031-6.2617 2.0234-9.8359z"/>
  
 </g>
</svg>
