<?xml version="1.0" encoding="UTF-8"?>
<svg width="40" height="40" version="1.1" viewBox="0 0 700 700" xmlns="http://www.w3.org/2000/svg" id='trips'>
 <g>
  <path fill="#343a40" d="m311.5 403.81c0-4.3086 1.7109-8.4414 4.7578-11.488 3.0469-3.043 7.1758-4.7539 11.484-4.7539h44.52c4.3086 0 8.4375 1.7109 11.484 4.7578 3.043 3.0469 4.7539 7.1758 4.7539 11.484v5.2695l124.12-40.387c4.8203-1.5664 9.0156-4.6172 11.996-8.7148 2.9766-4.1016 4.582-9.0352 4.582-14.102v-55.195c0-2.168-0.86328-4.25-2.3984-5.7852-1.5352-1.5352-3.6172-2.3984-5.7891-2.3984h-342.02c-2.168 0-4.2539 0.86328-5.7891 2.3984-1.5352 1.5352-2.3984 3.6172-2.3984 5.7852v55.195c0 5.0664 1.6055 10 4.582 14.098 2.9766 4.1016 7.1719 7.1523 11.992 8.7188l124.12 40.387z"/>
  <path fill="#343a40" d="m388.5 417.55 126.62-41.195c5.4336-1.7656 10.293-4.9531 14.082-9.2305v161.35c0 2.1719-0.86328 4.2539-2.3984 5.7891-1.5352 1.5352-3.6172 2.3984-5.7891 2.3984h-342.02c-2.168 0-4.2539-0.86328-5.7891-2.3984-1.5352-1.5352-2.3945-3.6172-2.3984-5.7891v-161.35c3.7891 4.2773 8.6523 7.4648 14.082 9.2305l126.61 41.195v13.543c0 4.3086 1.7109 8.4414 4.7578 11.484 3.0469 3.0469 7.1758 4.7578 11.484 4.7578h44.52c4.3086 0 8.4375-1.7109 11.484-4.7578 3.043-3.0469 4.7539-7.1758 4.7539-11.484z"/>
  <path fill="#343a40" d="m380.45 431.1v-27.285c-0.003906-4.5195-3.6641-8.1836-8.1836-8.1836h-44.52c-2.1719-0.003906-4.2539 0.85938-5.7891 2.3945-1.5352 1.5352-2.3984 3.6172-2.3984 5.7891v27.285c0 2.1719 0.86328 4.2539 2.3984 5.7891 1.5352 1.5352 3.6172 2.3984 5.7891 2.3945h44.52c4.5195 0 8.1836-3.6641 8.1836-8.1836z"/>
  <path fill="#343a40" d="m309.8 63.527c0.003906-14.355 7.668-27.625 20.102-34.801 12.438-7.1797 27.758-7.1797 40.191 0 12.434 7.1758 20.098 20.445 20.102 34.801v210.91h-80.395z"/>
  <path fill="#343a40" d="m600.48 233.45v-14.266c0-3.1797-1.8438-6.0742-4.7266-7.418l-197.5-92.105v90.613l192.73 31.258c2.3711 0.38281 4.7891-0.28906 6.6172-1.8438 1.8281-1.5586 2.8828-3.8359 2.8828-6.2383z"/>
  <path fill="#343a40" d="m99.523 219.19v14.266c0 2.4023 1.0547 4.6797 2.8828 6.2344 1.8242 1.5547 4.2422 2.2305 6.6133 1.8477l192.73-31.258v-90.613l-197.5 92.105c-2.8828 1.3438-4.7266 4.2383-4.7266 7.418z"/>
 </g>
</svg>
