<?xml version="1.0" encoding="UTF-8"?>
<svg width="30" height="30" version="1.1" viewBox="0 0 700 700" xmlns="http://www.w3.org/2000/svg" xmlns:xlink="http://www.w3.org/1999/xlink">
 
 <g>
  <path fill="#dc3545" d="m350 30.801c-137.62 0-249.2 111.57-249.2 249.2 0 137.63 111.57 249.2 249.2 249.2 137.63 0 249.2-111.57 249.2-249.2 0-137.62-111.57-249.2-249.2-249.2zm0 61.598c39.039 0 75.273 11.934 105.3 32.336l-260.57 260.57c-20.402-30.027-32.336-66.27-32.336-105.31 0-103.61 83.996-187.6 187.6-187.6zm0 375.2c-38.707 0-74.672-11.73-104.55-31.824l260.32-260.32c20.094 29.871 31.828 65.836 31.828 104.54 0 103.61-83.996 187.6-187.6 187.6z"/>
  
 </g>
</svg>
