<?xml version="1.0" encoding="UTF-8"?>
<svg width="30" height="30" version="1.1" viewBox="0 0 700 700" xmlns="http://www.w3.org/2000/svg" xmlns:xlink="http://www.w3.org/1999/xlink">
 
 <g>
  <path fill="#343a40" d="m267.17 100.33v59.5c0 7 4.668 11.668 11.668 11.668s11.668-4.668 11.668-11.668l-0.003906-59.5c0-14 11.668-25.668 25.668-25.668h197.17c14 0 25.668 11.668 25.668 25.668v359.33c0 14-11.668 25.668-25.668 25.668h-196c-14 0-25.668-11.668-25.668-25.668v-59.5c0-7-4.668-11.668-11.668-11.668s-11.668 4.668-11.668 11.668v59.5c0 26.832 22.168 49 49 49h197.17c26.832 0 49-22.168 49-49l0.003906-359.33c0-26.832-22.168-49-49-49h-197.17c-28-1.1641-50.164 21-50.164 49zm-130.67 175c-1.168 2.332-1.168 5.832 0 9.332 1.168 1.168 1.168 2.332 2.332 3.5l79.332 79.332c4.668 4.668 11.668 4.668 16.332 0 4.668-4.668 4.668-11.668 0-16.332l-58.328-59.496h233.33c7 0 11.668-4.668 11.668-11.668s-4.668-11.668-11.668-11.668h-233.33l59.5-59.5c4.668-4.668 4.668-11.668 0-16.332-2.332-2.332-5.832-3.5-8.168-3.5-2.332 0-5.832 1.168-8.168 3.5l-79.332 79.332c-2.332 1.168-2.332 2.3359-3.5 3.5z"/>
  
 </g>
</svg>
