<?xml version="1.0" encoding="UTF-8"?>
<svg width="30" height="30" version="1.1" viewBox="0 0 700 700" xmlns="http://www.w3.org/2000/svg" xmlns:xlink="http://www.w3.org/1999/xlink">
 
 <g>
  <path fill="#dc3545" d="m532.16 166.36v291.75c0 24.883-10.18 47.477-26.543 63.875-16.379 16.379-38.992 26.543-63.875 26.543h-183.49c-24.883 0-47.477-10.18-63.875-26.543-16.379-16.379-26.543-38.992-26.543-63.875v-291.75h-2.9062c-6.957 0-12.582-5.6445-12.582-12.602v-63.27c0-6.957 5.6289-12.582 12.582-12.582h88.336v-53.844c0-6.957 5.6289-12.582 12.582-12.582h168.3c6.957 0 12.582 5.6289 12.582 12.582v53.844h88.336c6.957 0 12.582 5.6289 12.582 12.582v63.27c0 6.957-5.6289 12.602-12.582 12.602zm-110.59 68.711c0-6.957 5.6289-12.582 12.582-12.582 6.957 0 12.582 5.6289 12.582 12.582v208.81c0 6.957-5.6289 12.582-12.582 12.582-6.957 0-12.582-5.6289-12.582-12.582zm-84.152 0c0-6.957 5.6289-12.582 12.582-12.582 6.957 0 12.582 5.6289 12.582 12.582v208.81c0 6.957-5.6289 12.582-12.582 12.582-6.957 0-12.582-5.6289-12.582-12.582zm-84.152 0c0-6.957 5.6289-12.582 12.582-12.582 6.957 0 12.582 5.6289 12.582 12.582v208.81c0 6.957-5.6289 12.582-12.582 12.582-6.957 0-12.582-5.6289-12.582-12.582zm25.168-157.16h143.14v-41.262h-143.14zm-98.012 63.27h342.05v-38.102h-344.98v38.102zm326.56 316.93v-291.75h-313.96v291.75c0 17.926 7.3398 34.238 19.168 46.066s28.141 19.168 46.066 19.168h183.49c17.926 0 34.238-7.3398 46.066-19.168s19.168-28.141 19.168-46.066z"/>
  
 </g>
</svg>
